<svg xmlns="http://www.w3.org/2000/svg" xmlns:xlink="http://www.w3.org/1999/xlink" width="1923" height="1080" viewBox="0 0 1923 1080"><defs><style>.a{fill:url(#a);}.b{fill:url(#b);}.c{clip-path:url(#c);}.d{fill:#78bdc4;}</style><radialGradient id="a" cx="0.5" cy="1" r="0.488" gradientTransform="translate(-3.16 1) rotate(-90) scale(1 3.16)" gradientUnits="objectBoundingBox"><stop offset="0" stop-color="#09455d"/><stop offset="1" stop-color="#012d3e"/><stop offset="1" stop-color="#012c3d"/></radialGradient><linearGradient id="b" x1="0.5" y1="0.167" x2="0.5" y2="1" gradientUnits="objectBoundingBox"><stop offset="0" stop-color="#012c3d"/><stop offset="1" stop-color="#09455d"/></linearGradient><clipPath id="c"><rect class="a" width="1920" height="1080" transform="translate(-1520 -348)"/></clipPath></defs><g transform="translate(3)"><rect class="b" width="1923" height="1080" transform="translate(-3)"/><g class="c" transform="translate(1520 348)"><path class="d" d="M2183.507,832.423c-6.877-9.456-19.428-12.55-28.37-3.782-15.817,15.3-31.465,30.777-47.11,46.079-9.285,8.94-31.465,40.749-38,16.333-8.6-31.635,19.086-69.461,34.559-95.08,36.967-61.381,77.372-122.246,64.132-197.21-6.7-38-25.446-73.072-45.047-105.912-15.3-25.275-33.356-62.069-69.289-54.331-17.71,3.782-35.076,35.074-52.27,23.9-12.55-8.081-19.943-25.962-31.12-36.45a156.269,156.269,0,0,0-42.467-28.2c-73.931-33.527-172.451-25.446-246.9,1.72-11,3.955-16.851,15.646-10.833,26.478,12.724,22.7-5.846,50.549-32.152,41.436-19.086-6.706-25.617-33.871-42.468-45.735-31.807-22.18-74.277-17.366-101.27,9.8-9.112,9.284-26.823,41.437-44.016,35.074-7.221-2.751-4.986-15.3-7.566-22.179a32.633,32.633,0,0,0-15.817-18.054c-43.156-23.039-60.349,31.808-62.24,64.476a33.448,33.448,0,0,0-.345,4.127v.859c.517,72.213,13.927,142.019,27.683,212.511q19.343,100.841,38.856,201.508l9.8,51.065c4.987,25.619,9.972,51.409,14.442,77.2,2.751,15.99,5.5,32.152,7.738,48.314,1.375,9.8,4.986,21.663,4.127,31.636-1.032,10.832-3.611,12.894-14.271,13.926-22.869,2.063-57.6-1.72-74.105-19.6-16.677-18.054-11-47.282-10.831-69.806,0-21.836-2.58-45.391-18.226-62.241-15.989-17.365-46.765-18.4-58.629-38.17-6.878-11.519-9.457-23.555-21.32-31.464-13.239-8.769-28.542-3.439-41.953-9.456-16.677-7.566-20.633-36.622-34.559-49.174-18.741-16.85-45.736-12.723-62.929,4.3-9.457,9.628-14.442,21.664-20.288,33.528-2.578,5.33-5.158,12.55-9.629,16.677-2.923,2.752-11.864,6.018-12.036,5.5-5.33-12.551-25.791-20.116-33.183-4.3C1012.8,1000.4,976.695,1096,948.841,1194.176c-5.159,17.709-7.222,48.313-19.945,62.412-6.017,6.534-16.334,8.6-23.383,13.411a46.08,46.08,0,0,0-17.021,20.976c-6.877,15.99-3.611,32.668-6.362,49.346-3.267,20.288-18.913,36.794-24.071,56.91-8.6,33.872-1.375,70.494,16.162,100.411a147.563,147.563,0,0,0,33.183,39.717c12.036,10.145,31.637,16.506,41.265,28.886,11.863,14.958-6.878,38.685-14.442,51.924-12.037,21.148-25.1,41.78-39.029,61.725a799.323,799.323,0,0,1-90.783,107.8c-45.391,45.047-143.049,117.088-75.995,187.753,14.442,15.131,35.419,23.555,54.331,31.636,13.067,5.5,26.649,11.176,40.92,12.379,18.57,1.375,33.528-5.673,41.952-22.351,3.438-6.705,4.986-14.1,7.909-20.975,1.032-2.752,1.891-5.675,3.782-7.91.859-1.2,1.2-2.75,2.408-3.61,8.251-6.189,9.112-1.032,12.206,3.783,2.923,4.471,3.1,12.036,5.5,17.021a65.927,65.927,0,0,0,13.756,19.773c11,11,25.961,17.71,41.092,20.632,33.527,6.19,66.023-8.081,84.593-36.622,9.111-14.27,14.1-30.776,15.645-47.455a115.531,115.531,0,0,0-.859-25.618c-1.2-9.457-7.737-20.632-7.737-29.574,0-7.909-.687-5.846,6.877-9.8,7.394-3.955,14.787-7.565,22.18-11.347,13.754-7.05,27.338-13.927,40.921-20.977,24.242-12.207,48.658-24.243,72.556-36.965,19.429-10.317,38.17-22.524,49.175-42.125,10.659-18.913,13.067-41.093,19.429-61.381,28.025-88.2,103.5-151.475,174.169-207.525,11.692,20.632-.86,60.006-4.986,78.746a805.453,805.453,0,0,1-30.432,101.786c-10.145,26.822-21.837,56.223-14.1,85.108,6.7,24.587,26.995,43.328,51.582,49.174,53.986,12.723,96.8-33.184,116.055-77.887,13.066-30.777,18.567-64.476,33.355-94.393a161.324,161.324,0,0,1,57.77-64.647c57.426-36.107,128.608-26.307,192.74-36.795,55.535-9.112,106.944-37.482,143.566-80.465a242.963,242.963,0,0,0,41.78-69.634c12.207-31.12,15.818-62.069,38.17-88.031,20.116-23.211,40.234-44.015,53.127-72.384,11.693-26.479,18.054-55.535,17.366-84.42-.859-32.324-19.772-68.258-13.754-100.066,3.61-19.945,22.35-26.478,37.654-36.107a112.759,112.759,0,0,0,29.916-26.478C2211.875,938.164,2214.971,875.751,2183.507,832.423ZM2133.817,973.41c-20.976,14.615-43.5,22.524-53.816,47.97-9.627,24.415-4.125,50.893,1.55,75.479,14.441,63.1,2.578,116.057-41.093,164.542-17.882,19.6-33.872,38.858-42.812,64.3-10.315,29.229-15.646,57.6-32.667,84.248-28.2,44.359-73.417,77.027-124.826,89.063-61.552,14.615-126.887,4.47-186.721,27.51-47.109,18.4-86.312,54.847-107.115,101.1-20.8,45.734-24.588,121.558-77.544,144.77-12.722,5.5-27.853,6.7-40.233-.86-17.193-10.832-16.5-30.948-12.378-48.485,8.253-34.9,24.415-67.915,34.043-102.474,13.239-48.142,41.264-128.78-10.315-163.854-7.222-4.986-15.819-2.063-22.009,2.75-61.724,48.83-124.825,100.067-166.6,167.982-20.977,33.7-29.4,68.43-41.436,105.567-7.222,22.352-21.665,32.668-41.609,43.156-21.491,11.348-43.327,22.18-65.164,33.183-20.975,10.832-42.125,21.491-63.1,32.324-16.162,8.253-32.669,16.334-34.045,36.794-1.031,16.506,9.8,31.807,10.832,48.314,1.032,18.4-3.954,38.514-17.365,51.752-11.863,11.864-28.886,15.3-44.876,10.832-17.193-4.986-22.7-15.13-27.682-30.6-9.455-29.573-40.92-45.219-67.913-23.727-13.755,10.832-18.913,27.51-24.415,43.328a23.471,23.471,0,0,1-1.891,4.642c0,.172-.345.344-1.032,1.031a4.57,4.57,0,0,0,.86-1.031c-.173,0-.345.172-.516.344-7.049,2.407-20.288-3.439-27.51-6.189-17.365-6.706-41.436-15.131-52.784-30.6-14.1-19.429-8.253-41.952,4.471-60.349,22.867-32.84,58.974-57.082,86.655-85.967a832.963,832.963,0,0,0,79.433-96.112c22.868-32.152,51.581-69.806,63.444-107.8,9.8-31.636-5.5-54.676-31.808-71.01-30.261-18.913-54.161-43.5-61.381-79.778-4.3-21.148-.859-40.748,9.113-59.662,10.488-19.429,16.506-35.074,17.364-57.254.345-9.972-1.2-21.835,7.222-29.057,6.878-5.845,17.021-7.393,24.07-13.583,15.131-13.067,19.774-32.5,24.76-50.893a1906.6,1906.6,0,0,1,103.333-289.883c8.424,3.1,18.053,3.1,28.025-.172,25.447-8.081,31.637-33.7,43.672-53.988,18.913-31.635,28.714,5.846,39.373,21.837,5.158,7.909,11.519,15.129,19.944,19.6,12.208,6.533,28.2,2.408,39.2,9.284,10.316,6.361,13.237,24.071,22.866,33.183,8.941,8.425,20.117,12.723,31.12,17.537,12.036,5.159,22.525,10.145,26.995,23.04,4.3,12.9,2.579,28.026,2.234,41.265-.687,25.275-.172,51.58,15.13,73.072,14.616,20.46,38.514,30.6,62.757,34.731,22.352,3.955,56.566,9.457,77.027-3.095,27.166-16.678,15.817-55.363,12.38-80.637-6.533-46.594-15.647-92.673-24.588-138.752q-18.826-96.971-37.482-194.287C1420.8,664.1,1401.717,580.883,1401.2,495.259c0-3.61.859-36.279,6.877-35.418,3.267.515,4.643,16.506,6.362,19.944,7.392,15.99,24.071,23.383,40.92,22.867,20.288-.516,35.934-11.864,48.83-26.478,15.817-17.881,29.229-37.481,56.394-31.464,24.586,5.674,28.37,30.6,45.736,45.219a65.533,65.533,0,0,0,55.534,13.927c35.936-7.393,54.161-42.64,47.628-75.48,66.366-20.46,153.364-26.822,213.715,7.221,15.989,8.941,27.854,20.8,38.513,35.418,9.284,12.9,20.461,24.415,36.106,29.229,11,3.1,22.352,2.579,32.668-2.579,10.315-4.986,16.505-15.474,26.308-20.8,14.269-7.909,21.492,11.348,28.023,22.008,11.348,18.4,22.7,37.138,31.809,56.739,18.054,39.029,24.587,79.606,11,121.042-12.037,36.45-34.732,68.6-54.333,101.1-16.849,27.854-37.481,60.177-40.4,93.361-2.407,26.822,8.253,64.476,40.4,66.539,20.977,1.375,34.732-12.379,48.486-25.962,13.754-13.411,27.508-26.822,41.437-40.405C2176.8,907.044,2166.656,950.543,2133.817,973.41Z" transform="translate(-1279.269 -1175.488)"/></g></g></svg>