<svg xmlns="http://www.w3.org/2000/svg" width="227.877" height="197.493" viewBox="0 0 227.877 197.493"><defs><style>.a{fill:#d9ecee;}</style></defs><path class="a" d="M154.489,38.295A17.091,17.091,0,1,0,137.4,21.2,17.11,17.11,0,0,0,154.489,38.295Zm28.485,68.363a47.474,47.474,0,1,0,47.474,47.474,47.492,47.492,0,0,0-47.474-47.474Zm0,80.707a33.232,33.232,0,1,1,33.232-33.232A33.208,33.208,0,0,1,182.974,187.364ZM143.1,87.668h39.879V70.577H152.59l-18.373-31a16.115,16.115,0,0,0-13.91-7.928A15.917,15.917,0,0,0,108.913,36.4L73.782,71.479a16.128,16.128,0,0,0,3.323,25.4l31.808,19.275v47.474H126V102.1L104.641,86.243,126.669,64.12,143.1,87.668Zm-93.05,18.99A47.474,47.474,0,1,0,97.52,154.132a47.492,47.492,0,0,0-47.475-47.474Zm0,80.707a33.232,33.232,0,1,1,33.232-33.232A33.208,33.208,0,0,1,50.045,187.364Z" transform="translate(-2.571 -4.113)"/></svg>