<svg xmlns="http://www.w3.org/2000/svg" width="272.586" height="242.299" viewBox="0 0 272.586 242.299"><defs><style>.a{fill:#d9ecee;}</style></defs><path class="a" d="M136.293,0A59.627,59.627,0,0,0,76.665,59.628c0,26.624,38.971,75.15,53.9,92.764a7.464,7.464,0,0,0,11.452,0c14.931-17.614,53.9-66.14,53.9-92.764A59.627,59.627,0,0,0,136.293,0Zm0,79.5a19.876,19.876,0,1,1,19.876-19.876A19.874,19.874,0,0,1,136.293,79.5ZM9.522,102.2A15.147,15.147,0,0,0,0,116.256V234.717a7.573,7.573,0,0,0,10.383,7.032l65.335-29.738v-110.3A143.314,143.314,0,0,1,65.662,79.741ZM136.293,170.21a22.612,22.612,0,0,1-17.278-8.026c-9.3-10.979-19.2-23.482-28.153-36.307v86.13l90.862,30.287V125.882c-8.954,12.82-18.844,25.328-28.153,36.307A22.623,22.623,0,0,1,136.293,170.21ZM262.2,76.267l-65.335,29.738V242.3l66.2-26.478a15.142,15.142,0,0,0,9.522-14.06V83.3A7.573,7.573,0,0,0,262.2,76.267Z"/></svg>