<svg xmlns="http://www.w3.org/2000/svg" width="154.059" height="27.8" viewBox="0 0 154.059 27.8"><defs><style>.a{fill:#f7f8f3;}</style></defs><path class="a" d="M225.934,162.871l-5.673,13.481h-4.628l-2.041-13.481h3.774l.949,10.8,3.774-10.8Z" transform="translate(-213.592 -159.013)"/><path class="a" d="M238.206,176.352l-.261-2.73h-3.8l-1,2.73h-3.844l6.075-13.481h4.391l2.254,13.481Zm-3.11-5.364h2.611l-.522-5.7Z" transform="translate(-219.717 -159.013)"/><path class="a" d="M263.21,176.352h-4.533l-2.4-10.277q.048,1.378.047,2.113a26.177,26.177,0,0,1-.261,3.75l-.617,4.414h-3.275l1.9-13.481h4.462l2.539,10.253q-.119-1.305-.118-2.3a23.119,23.119,0,0,1,.261-3.3l.641-4.652h3.251Z" transform="translate(-228.631 -159.013)"/><path class="a" d="M286.1,162.871l-.759,2.611h-4.818l-.38,2.706h4.225l-.356,2.563h-4.225l-.4,2.943h5.126l-.333,2.658h-8.829l1.875-13.481Z" transform="translate(-237.665 -159.013)"/><path class="a" d="M304.338,163.832a3.257,3.257,0,0,1,1.352,2.836,4.173,4.173,0,0,1-3.109,4.153l2.681,5.53h-3.987l-2.089-4.937h-1.163l-.712,4.937h-3.679l1.9-13.481h4.795A6.917,6.917,0,0,1,304.338,163.832Zm-5.483,1.6-.5,3.465h1.234a2.288,2.288,0,0,0,1.792-.605,2.16,2.16,0,0,0,.534-1.483,1.175,1.175,0,0,0-.486-1.044,2.654,2.654,0,0,0-1.483-.333Z" transform="translate(-244.79 -159.013)"/><path class="a" d="M326.1,176.352h-4.533l-2.4-10.277q.048,1.378.048,2.113a26.181,26.181,0,0,1-.261,3.75l-.617,4.414h-3.276l1.9-13.481h4.462l2.539,10.253q-.119-1.305-.118-2.3a23.208,23.208,0,0,1,.261-3.3l.641-4.652H328Z" transform="translate(-253.143 -159.013)"/><path class="a" d="M356.414,164.13l-2.065,1.9a4.631,4.631,0,0,0-1.222-.819,3.445,3.445,0,0,0-1.364-.249,3.277,3.277,0,0,0-3.157,1.851,9.455,9.455,0,0,0-.95,4.367,3.054,3.054,0,0,0,.546,2.053,2.16,2.16,0,0,0,1.685.6,4.4,4.4,0,0,0,1.851-.38l.356-2.634h-1.733l.024-2.539h5.506l-.9,6.74a10.652,10.652,0,0,1-2.516,1.1,10.05,10.05,0,0,1-2.777.368,5.977,5.977,0,0,1-4.284-1.413,5.385,5.385,0,0,1-1.483-4.094,10.91,10.91,0,0,1,.807-4.177,7.284,7.284,0,0,1,2.575-3.228,7.58,7.58,0,0,1,4.5-1.258A6.091,6.091,0,0,1,356.414,164.13Z" transform="translate(-264.394 -158.8)"/><path class="a" d="M377.318,163.832a3.256,3.256,0,0,1,1.353,2.836,4.173,4.173,0,0,1-3.109,4.153l2.682,5.53h-3.987l-2.089-4.937h-1.163l-.712,4.937h-3.678l1.9-13.481h4.795A6.915,6.915,0,0,1,377.318,163.832Zm-5.482,1.6-.5,3.465h1.234a2.288,2.288,0,0,0,1.792-.605,2.163,2.163,0,0,0,.534-1.483,1.175,1.175,0,0,0-.486-1.044,2.657,2.657,0,0,0-1.483-.333Z" transform="translate(-273.236 -159.013)"/><path class="a" d="M395.705,176.352l-.261-2.73h-3.8l-1,2.73H386.8l6.076-13.481h4.391l2.255,13.481Zm-3.109-5.364h2.611l-.522-5.7Z" transform="translate(-281.105 -159.013)"/><path class="a" d="M422.957,162.871l-5.672,13.481h-4.628l-2.041-13.481h3.774l.949,10.8,3.773-10.8Z" transform="translate(-290.386 -159.013)"/><path class="a" d="M441.716,162.871l-.759,2.611h-4.818l-.38,2.706h4.225l-.356,2.563H435.4l-.4,2.943h5.127l-.333,2.658h-8.829l1.875-13.481Z" transform="translate(-298.318 -159.013)"/><path class="a" d="M456.034,162.871l-1.5,10.609h5.435l-.807,2.872h-8.711l1.9-13.481Z" transform="translate(-305.915 -159.013)"/><path class="a" d="M244.679,156.548l-.481,2.58h-7.676l.486-2.58Z" transform="translate(-222.53 -156.548)"/><g transform="translate(41.781 21.048)"><path class="a" d="M286.285,197.64l-.162-1.478h-2.051l-.572,1.478h-1.44l2.928-6.6h1.688l1.069,6.6Zm-1.812-2.518h1.535l-.334-3.109Z" transform="translate(-282.06 -191.04)"/><path class="a" d="M301.2,191.588a2.186,2.186,0,0,1,.81,1.951,5.53,5.53,0,0,1-.367,2.064,3.162,3.162,0,0,1-1.192,1.479,3.767,3.767,0,0,1-2.15.558h-1.88l.925-6.6h1.7A3.793,3.793,0,0,1,301.2,191.588Zm-2.614.482-.629,4.54h.553a1.656,1.656,0,0,0,1.592-.916,4.607,4.607,0,0,0,.477-2.155,1.446,1.446,0,0,0-.377-1.159,1.628,1.628,0,0,0-1.063-.31Z" transform="translate(-287.658 -191.04)"/><path class="a" d="M316.169,191.04l-2.8,6.6h-1.679l-1.011-6.6h1.44l.563,5.437,2.051-5.437Z" transform="translate(-293.214 -191.04)"/><path class="a" d="M328.017,191.04l-.286,1.03h-2.355l-.239,1.707h2.041l-.124,1.011H325l-.257,1.822h2.517l-.153,1.029h-3.9l.925-6.6Z" transform="translate(-298.099 -191.04)"/><path class="a" d="M340.312,197.64h-1.773l-1.364-5.427v.391a19.008,19.008,0,0,1-.172,2.537l-.353,2.5H335.4l.926-6.6h1.755l1.392,5.427q-.019-.554-.019-.791a13.814,13.814,0,0,1,.134-1.812l.4-2.823h1.25Z" transform="translate(-302.85 -191.04)"/><path class="a" d="M355.108,191.04l-.305,1.1h-1.65l-.773,5.5H351l.772-5.5h-1.726l.153-1.1Z" transform="translate(-308.558 -191.04)"/><path class="a" d="M367.332,195.484a2.788,2.788,0,0,1-.449,1.2,2.421,2.421,0,0,1-.949.815,3.092,3.092,0,0,1-1.387.3,2.33,2.33,0,0,1-1.645-.519,1.831,1.831,0,0,1-.558-1.407,3.138,3.138,0,0,1,.029-.42l.62-4.406h1.393l-.62,4.378a2.875,2.875,0,0,0-.029.381.957.957,0,0,0,.219.691.926.926,0,0,0,.687.224,1.181,1.181,0,0,0,.9-.329,1.794,1.794,0,0,0,.41-1.006l.62-4.339h1.383Z" transform="translate(-313.352 -191.04)"/><path class="a" d="M381.174,193.973a2.4,2.4,0,0,1-1.2.854l1.269,2.813h-1.526l-1.039-2.585h-.744l-.353,2.585H376.19l.926-6.6h2.031a2.94,2.94,0,0,1,1.773.449,1.5,1.5,0,0,1,.6,1.278A2.148,2.148,0,0,1,381.174,193.973Zm-3.1.09h.744a1.166,1.166,0,0,0,.964-.367,1.352,1.352,0,0,0,.3-.873.671.671,0,0,0-.258-.591,1.448,1.448,0,0,0-.82-.181h-.649Z" transform="translate(-318.749 -191.04)"/><path class="a" d="M394.517,191.04l-.286,1.03h-2.355l-.239,1.707h2.041l-.124,1.011H391.5l-.258,1.822h2.518l-.153,1.029h-3.9l.925-6.6Z" transform="translate(-324.019 -191.04)"/></g></svg>