<svg xmlns="http://www.w3.org/2000/svg" xmlns:xlink="http://www.w3.org/1999/xlink" width="340" height="340" viewBox="0 0 340 340"><defs><style>.a{fill:url(#a);}.b{fill:#78bdc4;}.c{fill:#efc570;}.d{fill:#f8444f;}.e{fill:#073e55;}.f{fill:#f7f8f3;}</style><linearGradient id="a" x1="0.158" y1="1.092" x2="0.842" y2="-0.092" gradientUnits="objectBoundingBox"><stop offset="0" stop-color="#09455d"/><stop offset="1" stop-color="#012c3d"/></linearGradient></defs><g transform="translate(-4148.811 -69.261)"><rect class="a" width="340" height="340" transform="translate(4148.811 69.262)"/><path class="b" d="M4433.034,227.134a15.694,15.694,0,0,1-4.166,3.687c-2.131,1.341-4.74,2.25-5.243,5.027-.838,4.429,1.795,9.432,1.916,13.933a27.682,27.682,0,0,1-2.418,11.754c-1.8,3.95-4.6,6.847-7.4,10.079-3.112,3.615-3.615,7.924-5.315,12.258a33.836,33.836,0,0,1-5.817,9.7,33.42,33.42,0,0,1-19.99,11.2c-8.93,1.459-18.841.1-26.837,5.122a22.478,22.478,0,0,0-8.043,9c-2.059,4.165-2.825,8.858-4.645,13.142-2.681,6.225-8.642,12.616-16.159,10.845a9.775,9.775,0,0,1-7.183-6.847c-1.077-4.022.551-8.116,1.964-11.851a112.167,112.167,0,0,0,4.237-14.172c.575-2.609,2.322-8.091.695-10.964-9.839,7.8-20.35,16.615-24.251,28.9-.886,2.825-1.221,5.913-2.7,8.547-1.533,2.729-4.143,4.429-6.848,5.865-3.328,1.772-6.728,3.447-10.1,5.148-1.892.981-3.782,1.938-5.7,2.92-1.029.527-2.06,1.03-3.089,1.58-1.054.551-.957.263-.957,1.365,0,1.245.909,2.8,1.077,4.117a16.038,16.038,0,0,1,.12,3.567,14.805,14.805,0,0,1-2.179,6.608,11.415,11.415,0,0,1-11.778,5.1,11.047,11.047,0,0,1-5.721-2.873,9.174,9.174,0,0,1-1.916-2.752,22.9,22.9,0,0,0-.766-2.37c-.43-.671-.55-1.389-1.7-.528-.168.12-.216.336-.335.5a3.582,3.582,0,0,0-.527,1.1c-.407.957-.623,1.987-1.1,2.921a5.607,5.607,0,0,1-5.842,3.112,19.153,19.153,0,0,1-5.7-1.724c-2.633-1.126-5.554-2.3-7.565-4.405-9.336-9.84,4.262-19.87,10.582-26.142a111.319,111.319,0,0,0,12.64-15.011c1.94-2.776,3.759-5.65,5.435-8.595,1.054-1.843,3.663-5.147,2.011-7.229-1.341-1.724-4.069-2.609-5.745-4.022a20.544,20.544,0,0,1-4.621-5.53,18.858,18.858,0,0,1-2.25-13.982c.719-2.8,2.9-5.1,3.352-7.923.384-2.322-.071-4.645.887-6.871a6.414,6.414,0,0,1,2.37-2.92c.981-.671,2.418-.957,3.255-1.868,1.772-1.963,2.06-6.224,2.777-8.69a272.57,272.57,0,0,1,14.866-39.884c1.03-2.2,3.879-1.149,4.621.6a4.309,4.309,0,0,0,1.676-.766,7.743,7.743,0,0,0,1.34-2.323,16.934,16.934,0,0,1,2.826-4.669c2.394-2.37,6.151-2.944,8.762-.6,1.939,1.747,2.49,5.794,4.812,6.847,1.868.837,4,.1,5.842,1.317,1.651,1.1,2.011,2.776,2.968,4.381,1.652,2.753,5.938,2.9,8.164,5.315,2.179,2.346,2.538,5.626,2.538,8.666-.023,3.136-.813,7.206,1.509,9.72,2.3,2.49,7.134,3.016,10.318,2.729,1.484-.143,1.843-.431,1.987-1.938a21.105,21.105,0,0,0-.575-4.405c-.312-2.251-.694-4.5-1.077-6.727-.622-3.591-1.317-7.182-2.011-10.75l-1.364-7.11q-2.695-14.04-5.411-28.058c-1.915-9.815-3.782-19.535-3.854-29.59V159.6a4.639,4.639,0,0,1,.048-.574c.263-4.549,2.657-12.186,8.666-8.978a4.54,4.54,0,0,1,2.2,2.513c.359.957.048,2.705,1.053,3.088,2.395.886,4.861-3.591,6.129-4.884a10.985,10.985,0,0,1,14.1-1.364c2.347,1.652,3.256,5.435,5.913,6.368,3.664,1.268,6.249-2.61,4.478-5.77a2.548,2.548,0,0,1,1.508-3.687c10.366-3.783,24.084-4.908,34.378-.24a21.79,21.79,0,0,1,5.914,3.926c1.556,1.46,2.585,3.95,4.332,5.075,2.395,1.556,4.813-2.8,7.278-3.328,5-1.077,7.517,4.046,9.647,7.565,2.729,4.572,5.339,9.457,6.272,14.747,1.843,10.438-3.783,18.913-8.93,27.46-2.154,3.567-6.009,8.834-4.812,13.238.909,3.4,4-1.029,5.29-2.274,2.179-2.13,4.357-4.285,6.56-6.415a2.551,2.551,0,0,1,3.95.527A17.4,17.4,0,0,1,4433.034,227.134Z" transform="translate(-20.072 -18.72)"/><g transform="translate(4370.505 145.002)"><path class="c" d="M4464.117,318.395a1.119,1.119,0,0,1-.6-2.062c41.236-26.343,52.75-56.635,55.148-77.409,3.408-29.531-9.159-54.146-20.956-66.252a1.119,1.119,0,1,1,1.6-1.562c12.141,12.458,25.076,37.76,21.577,68.071-2.454,21.257-14.189,52.223-56.167,79.038A1.113,1.113,0,0,1,4464.117,318.395Z" transform="translate(-4450.266 -170.771)"/><g transform="translate(0 134.009)"><path class="c" d="M4461.147,350.375l1.436,10.711,8.707,6.4-25.356,3.464Z" transform="translate(-4445.934 -350.375)"/></g></g><g transform="translate(4256.678 105.665)"><path class="c" d="M4294.5,196.53a1.119,1.119,0,0,1-1.048-1.512c15.523-41.524,43.257-68.9,76.093-75.119,24.116-4.564,44.387-.666,60.25,11.592a1.119,1.119,0,1,1-1.369,1.771c-15.334-11.848-35-15.6-58.464-11.164-32.049,6.067-59.172,32.931-74.414,73.7A1.12,1.12,0,0,1,4294.5,196.53Z" transform="translate(-4293.379 -118.051)"/><g transform="translate(123.176 2.161)"><path class="c" d="M4472.121,120.947l-3.755,10.134-9.9,4.332,23.974,8.954Z" transform="translate(-4458.464 -120.947)"/></g></g><g transform="translate(4405.402 108.614)"><circle class="c" cx="4.118" cy="4.118" r="4.118" transform="translate(3.115 27.876)"/><path class="d" d="M4506.25,122.225a11.328,11.328,0,0,0-13.33,8.886l-.007.028c-1.655,8.334,7.023,22.857,7.023,22.857s13.572-10.1,15.229-18.441a11.329,11.329,0,0,0-8.892-13.327Zm-3,15.092a4.049,4.049,0,1,1,4.757-3.188l0,.01A4.051,4.051,0,0,1,4503.251,137.317Z" transform="translate(-4492.703 -122.003)"/></g><g transform="translate(4405.432 289.63)"><ellipse class="e" cx="3.049" cy="0.655" rx="3.049" ry="0.655" transform="translate(12.065 26.992)"/><rect width="1.727" height="18.068" transform="translate(15.978 27.646) rotate(180)"/><g transform="translate(0)"><g transform="translate(0 0)"><path class="f" d="M4492.744,365.206c5.326,2.072,10.652-2.072,15.979,0v11.511c-5.326-2.072-10.653,2.072-15.979,0Z" transform="translate(-4492.744 -364.608)"/></g><g transform="translate(10.652)"><path d="M4507.021,364.746a10.548,10.548,0,0,1,5.326.46v5.756a10.549,10.549,0,0,0-5.326-.46Z" transform="translate(-4507.021 -364.608)"/></g><g transform="translate(0 0.598)"><path d="M4492.744,365.41a10.548,10.548,0,0,0,5.326.46v5.756a10.547,10.547,0,0,1-5.326-.46Z" transform="translate(-4492.744 -365.41)"/></g><g transform="translate(5.326 5.894)"><path d="M4499.883,373.428c1.775-.231,3.55-.691,5.326-.921v5.756c-1.775.231-3.551.691-5.326.921Z" transform="translate(-4499.883 -372.507)"/></g></g></g><g transform="translate(4346.905 273.404)"><circle class="c" cx="4.118" cy="4.118" r="4.118" transform="translate(9.109 28.193)"/><path class="d" d="M4424.635,342.909a11.328,11.328,0,0,0-10.286,12.283l0,.028c.76,8.464,13.179,19.952,13.179,19.952s10.176-13.516,9.416-21.984a11.329,11.329,0,0,0-12.287-10.281Zm1.375,15.325a4.049,4.049,0,1,1,3.666-4.4v.01A4.049,4.049,0,0,1,4426.01,358.234Z" transform="translate(-4414.304 -342.861)"/></g><g transform="translate(4232.694 158.655)"><circle class="c" cx="4.118" cy="4.118" r="4.118" transform="translate(14.539 26.973)"/><path class="d" d="M4268.647,189.783a11.329,11.329,0,0,0-6.71,14.548l.01.027c2.949,7.969,17.944,15.8,17.944,15.8s6.281-15.71,3.33-23.684a11.329,11.329,0,0,0-14.551-6.7Zm5.342,14.43a4.049,4.049,0,1,1,2.385-5.205l0,.009A4.049,4.049,0,0,1,4273.989,204.213Z" transform="translate(-4261.234 -189.07)"/></g><g transform="translate(4189.915 195.815)"><path class="c" d="M4258.583,417.835c-15.4,0-28.472-3.3-37.443-9.687-8.665-6.168-14.529-18.569-16.509-34.919-2.061-17.007.257-36.375,6.7-56.008,7.444-22.676,19.78-44.112,36.665-63.713a1.119,1.119,0,0,1,1.7,1.46c-36.933,42.875-46.348,89.063-42.842,117.992,1.876,15.489,7.558,27.65,15.585,33.364,12.532,8.921,34.566,11.564,58.938,7.076,28.135-5.183,65.47-21.63,85.874-52.247a1.12,1.12,0,0,1,1.863,1.242c-20.792,31.2-58.746,47.94-87.332,53.206A128.63,128.63,0,0,1,4258.583,417.835Z" transform="translate(-4203.9 -242.49)"/><g transform="translate(32.599 0)"><path class="c" d="M4247.591,249.545l10.19,3.6,4.481,9.834,8.589-24.107Z" transform="translate(-4247.591 -238.873)"/></g></g><g transform="translate(4371.211 303.752)"><path class="f" d="M4446.88,396.924l1.592-11.344h2.15l-1.592,11.344Zm6.238,0-3.152-6.058,4.58-5.286h2.364l-4.645,5.286,3.349,6.058Z" transform="translate(-4446.88 -384.054)"/><path class="f" d="M4467.647,388.313l-.837,5.827c-.021.2-.033.323-.033.378a.8.8,0,0,0,.108.444.814.814,0,0,0,.385.279l-.591,1.379a1.792,1.792,0,0,1-1.789-1.445,3.159,3.159,0,0,1-2.594,1.478,2.479,2.479,0,0,1-2.06-.92,3.871,3.871,0,0,1-.73-2.478,7.534,7.534,0,0,1,.5-2.676,5.153,5.153,0,0,1,1.584-2.217,4.188,4.188,0,0,1,2.742-.886A7.1,7.1,0,0,1,4467.647,388.313Zm-4.841,1.354a3.924,3.924,0,0,0-.862,1.626,7.3,7.3,0,0,0-.271,1.962q0,1.805,1.2,1.806a1.631,1.631,0,0,0,1.018-.354,5.031,5.031,0,0,0,.952-1.026l.623-4.431a2.881,2.881,0,0,0-1.165-.231A1.932,1.932,0,0,0,4462.806,389.666Zm-.559-4.169a.952.952,0,0,1-.3-.714,1.19,1.19,0,0,1,.37-.895,1.273,1.273,0,0,1,.911-.353,1.043,1.043,0,0,1,.756.287.957.957,0,0,1,.3.714,1.182,1.182,0,0,1-.37.895,1.265,1.265,0,0,1-.911.353A1.037,1.037,0,0,1,4462.247,385.5Zm3.594,0a.955.955,0,0,1-.294-.714,1.188,1.188,0,0,1,.369-.895,1.27,1.27,0,0,1,.911-.353,1.038,1.038,0,0,1,.754.287.953.953,0,0,1,.3.714,1.182,1.182,0,0,1-.37.895,1.266,1.266,0,0,1-.911.353A1.04,1.04,0,0,1,4465.841,385.5Z" transform="translate(-4450.085 -383.535)"/><path class="f" d="M4474.372,394.515l-.016.181a.45.45,0,0,0,.1.328.4.4,0,0,0,.3.1,1.908,1.908,0,0,0,.492-.1l.312,1.478a3.4,3.4,0,0,1-1.444.312,1.65,1.65,0,0,1-1.823-1.839,3.475,3.475,0,0,1,.033-.542l1.413-10.029,2.1-.231Z" transform="translate(-4453.33 -383.697)"/><path class="f" d="M4480.536,394.515l-.016.181a.452.452,0,0,0,.1.328.4.4,0,0,0,.3.1,1.9,1.9,0,0,0,.492-.1l.312,1.478a3.4,3.4,0,0,1-1.444.312,1.65,1.65,0,0,1-1.823-1.839,3.475,3.475,0,0,1,.033-.542L4479.9,384.4l2.1-.231Z" transform="translate(-4454.895 -383.697)"/><path class="f" d="M4492.025,388.523a3.978,3.978,0,0,1,.7,2.512,8.015,8.015,0,0,1-.468,2.708,4.826,4.826,0,0,1-1.568,2.192,4.44,4.44,0,0,1-2.856.878,8.3,8.3,0,0,1-1.617-.156,11.775,11.775,0,0,1-1.715-.5l1.659-11.753,2.084-.231-.624,4.5a3.532,3.532,0,0,1,2.445-1.033A2.353,2.353,0,0,1,4492.025,388.523Zm-3.7.986a4.783,4.783,0,0,0-.936.82l-.639,4.679a3.86,3.86,0,0,0,1.28.229,1.836,1.836,0,0,0,1.443-.657,4,4,0,0,0,.837-1.624,7.433,7.433,0,0,0,.263-1.954q0-1.788-1.248-1.789A1.818,1.818,0,0,0,4488.324,389.509Z" transform="translate(-4456.43 -383.697)"/><path class="f" d="M4500.926,397.879a6.061,6.061,0,0,1-1.92,2.487,5.853,5.853,0,0,1-3.071,1.042l-.065-1.526a4.721,4.721,0,0,0,1.913-.641,4.078,4.078,0,0,0,1.19-1.411h-.739l-1.509-8.684h2.166l.854,7.239,2.955-7.239h2.15Z" transform="translate(-4459.317 -384.959)"/></g><g transform="translate(4356.275 90.272)"><path class="f" d="M4426.862,111.1l1.591-11.344h2.15l-1.592,11.344Zm6.237,0-3.151-6.058,4.58-5.286h2.364l-4.646,5.286,3.35,6.058Z" transform="translate(-4426.862 -98.012)"/><path class="f" d="M4446.4,103.141l-.606,2.018a3.008,3.008,0,0,0-.722-.1,1.65,1.65,0,0,0-1.314.657,6.351,6.351,0,0,0-.984,1.921l-.608,4.284H4440.1l1.214-8.684h1.789l-.065,1.69a4,4,0,0,1,1.116-1.435,2.24,2.24,0,0,1,1.378-.486A3,3,0,0,1,4446.4,103.141Z" transform="translate(-4430.223 -98.839)"/><path class="f" d="M4451.863,101.82l-1.214,8.684h-2.068l1.215-8.684Zm-1.559-2.174a1.09,1.09,0,0,1-.329-.813,1.356,1.356,0,0,1,.411-1.01,1.4,1.4,0,0,1,1.018-.4,1.175,1.175,0,0,1,.854.321,1.106,1.106,0,0,1,.329.829,1.334,1.334,0,0,1-.411.992,1.4,1.4,0,0,1-1.018.4A1.172,1.172,0,0,1,4450.3,99.646Z" transform="translate(-4432.375 -97.42)"/><path class="f" d="M4461.138,104.087l-.952,1.166a3.52,3.52,0,0,0-2.084-.707,1.88,1.88,0,0,0-1.043.247.771.771,0,0,0-.369.673.693.693,0,0,0,.345.615,6.649,6.649,0,0,0,1.362.551,4.063,4.063,0,0,1,1.774.992,2.279,2.279,0,0,1,.574,1.618,2.6,2.6,0,0,1-.468,1.535,2.989,2.989,0,0,1-1.322,1.026,5.067,5.067,0,0,1-1.985.361,4.94,4.94,0,0,1-1.962-.377,4.456,4.456,0,0,1-1.452-.969l1.083-1.133a3.552,3.552,0,0,0,2.38.9,1.871,1.871,0,0,0,1.222-.337.992.992,0,0,0,.4-.78.957.957,0,0,0-.156-.566,1.29,1.29,0,0,0-.516-.395,10.865,10.865,0,0,0-1.1-.419,3.9,3.9,0,0,1-1.731-.96,2.132,2.132,0,0,1-.533-1.5,2.31,2.31,0,0,1,.4-1.3,2.813,2.813,0,0,1,1.191-.976,4.862,4.862,0,0,1,4.941.73Z" transform="translate(-4433.638 -98.833)"/><path class="f" d="M4467.75,108.653c-.022.219-.033.356-.033.41a.807.807,0,0,0,.164.567.7.7,0,0,0,.526.172,2.7,2.7,0,0,0,1.116-.312l.591,1.4a4.06,4.06,0,0,1-2.183.623,2.34,2.34,0,0,1-1.7-.583,2.2,2.2,0,0,1-.6-1.65,4.537,4.537,0,0,1,.048-.639l.641-4.548h-1.346l.213-1.509h1.428l.542-1.971,1.74-.2-.3,2.168h2l-.443,1.509h-1.773Z" transform="translate(-4436.538 -98.18)"/><path class="f" d="M4476.652,101.82l-1.214,8.684h-2.068l1.214-8.684Zm-1.559-2.174a1.087,1.087,0,0,1-.329-.813,1.356,1.356,0,0,1,.411-1.01,1.4,1.4,0,0,1,1.018-.4,1.175,1.175,0,0,1,.854.321,1.105,1.105,0,0,1,.328.829,1.334,1.334,0,0,1-.41.992,1.394,1.394,0,0,1-1.018.4A1.173,1.173,0,0,1,4475.093,99.646Z" transform="translate(-4438.668 -97.42)"/><path class="f" d="M4486.65,103.553a2.194,2.194,0,0,1,.533,1.567,4.023,4.023,0,0,1-.048.592l-.87,6.2H4484.2l.837-5.893c.022-.2.033-.334.033-.411a1,1,0,0,0-.2-.7.716.716,0,0,0-.542-.206q-1.116,0-2.281,2.232l-.707,4.974h-2.067l1.215-8.684h1.788l-.081,1.609a3.632,3.632,0,0,1,2.987-1.855A1.922,1.922,0,0,1,4486.65,103.553Z" transform="translate(-4440.167 -98.833)"/><path class="f" d="M4497.911,107.715a12.15,12.15,0,0,1-4.088,1.018q.067,1.805,1.692,1.806a3.43,3.43,0,0,0,1.132-.19,4.477,4.477,0,0,0,1.133-.615l.8,1.312a5.619,5.619,0,0,1-3.3,1.116,3.508,3.508,0,0,1-2.658-.96,3.676,3.676,0,0,1-.92-2.65,7.192,7.192,0,0,1,.485-2.585,4.936,4.936,0,0,1,1.542-2.126,4.159,4.159,0,0,1,2.7-.854,3.914,3.914,0,0,1,1.634.312,2.364,2.364,0,0,1,1.026.838,2.054,2.054,0,0,1,.345,1.148A2.534,2.534,0,0,1,4497.911,107.715Zm-1.428-1.026a1.478,1.478,0,0,0,.82-1.322.924.924,0,0,0-.229-.615.941.941,0,0,0-.755-.271,1.874,1.874,0,0,0-1.617.82,4.808,4.808,0,0,0-.78,2.036A6.433,6.433,0,0,0,4496.482,106.689Z" transform="translate(-4443.323 -98.833)"/><path class="f" d="M4510.54,102.386a2.174,2.174,0,0,1,.542,1.567,3.647,3.647,0,0,1-.033.558l-.886,6.238h-2.068l.837-5.893c.021-.219.033-.361.033-.427a.989.989,0,0,0-.189-.689.682.682,0,0,0-.517-.2q-1.15,0-2.348,2.232l-.673,4.974h-2.068l1.707-12.148,2.085-.213-.739,5.2a4.282,4.282,0,0,1,1.248-1.3,2.781,2.781,0,0,1,1.56-.476A1.993,1.993,0,0,1,4510.54,102.386Z" transform="translate(-4446.234 -97.666)"/><path class="f" d="M4523.745,103.825l-.837,5.826c-.021.2-.033.324-.033.378a.672.672,0,0,0,.492.723l-.591,1.379a1.793,1.793,0,0,1-1.789-1.445,3.158,3.158,0,0,1-2.594,1.477,2.48,2.48,0,0,1-2.06-.919,3.879,3.879,0,0,1-.729-2.479,7.513,7.513,0,0,1,.5-2.676,5.166,5.166,0,0,1,1.584-2.217,4.191,4.191,0,0,1,2.741-.886A7.1,7.1,0,0,1,4523.745,103.825Zm-4.842,1.354a3.926,3.926,0,0,0-.862,1.625,7.312,7.312,0,0,0-.271,1.962q0,1.805,1.2,1.806a1.64,1.64,0,0,0,1.018-.353,4.988,4.988,0,0,0,.951-1.026l.624-4.431a2.883,2.883,0,0,0-1.165-.231A1.931,1.931,0,0,0,4518.9,105.178Z" transform="translate(-4449.39 -98.833)"/><path class="f" d="M4539.862,103.553a2.2,2.2,0,0,1,.525,1.551,3.66,3.66,0,0,1-.033.558l-.887,6.254H4537.4l.837-5.893c.021-.219.033-.367.033-.443a.961.961,0,0,0-.188-.682.722.722,0,0,0-.534-.188q-.936,0-2.019,2.15l-.722,5.057h-2.068l.837-5.893c.021-.219.033-.367.033-.443a.961.961,0,0,0-.189-.682.721.721,0,0,0-.534-.188q-.935,0-2.019,2.215l-.69,4.991h-2.067l1.215-8.684h1.788l-.081,1.527a3.408,3.408,0,0,1,2.773-1.774,1.9,1.9,0,0,1,1.273.442,1.937,1.937,0,0,1,.631,1.248,4.412,4.412,0,0,1,1.265-1.248,2.743,2.743,0,0,1,1.477-.442A1.836,1.836,0,0,1,4539.862,103.553Z" transform="translate(-4452.565 -98.833)"/><path class="f" d="M4553.743,103.553a2.2,2.2,0,0,1,.533,1.567,3.963,3.963,0,0,1-.049.592l-.87,6.2h-2.068l.837-5.893c.022-.2.033-.334.033-.411a.99.99,0,0,0-.2-.7.713.713,0,0,0-.542-.206q-1.115,0-2.281,2.232l-.706,4.974h-2.067l1.214-8.684h1.789l-.081,1.609a3.63,3.63,0,0,1,2.987-1.855A1.924,1.924,0,0,1,4553.743,103.553Z" transform="translate(-4457.199 -98.833)"/></g><g transform="translate(4194.908 173.676)"><path class="f" d="M4217.947,225.273l-.329-2.626h-3.743l-1.051,2.626h-2.232l5.089-11.344h2.626l1.888,11.344Zm-3.415-4.268h2.889l-.673-5.5Zm4.448-11.3a1.711,1.711,0,0,1,.509,1.272,2.082,2.082,0,0,1-.3,1.076,2.138,2.138,0,0,1-.829.8,2.371,2.371,0,0,1-1.173.3,1.857,1.857,0,0,1-1.362-.5,1.728,1.728,0,0,1-.509-1.289,2.062,2.062,0,0,1,.3-1.059,2.141,2.141,0,0,1,.83-.8,2.369,2.369,0,0,1,1.173-.3A1.859,1.859,0,0,1,4218.98,209.7Zm-2.125.9a1.1,1.1,0,0,0-.254.722.759.759,0,0,0,.172.533.622.622,0,0,0,.485.189.87.87,0,0,0,.714-.312,1.11,1.11,0,0,0,.255-.722.741.741,0,0,0-.182-.533.65.65,0,0,0-.493-.189A.849.849,0,0,0,4216.855,210.6Z" transform="translate(-4210.592 -209.202)"/><path class="f" d="M4236.778,219.339a2.194,2.194,0,0,1,.525,1.551,3.649,3.649,0,0,1-.034.558l-.886,6.254h-2.068l.837-5.894c.021-.219.033-.366.033-.443a.956.956,0,0,0-.189-.681.72.72,0,0,0-.533-.189q-.936,0-2.02,2.15l-.722,5.057h-2.068l.837-5.894c.021-.219.033-.366.033-.443a.958.958,0,0,0-.189-.681.722.722,0,0,0-.534-.189q-.936,0-2.019,2.216l-.69,4.991h-2.067l1.214-8.684h1.789l-.082,1.527a3.407,3.407,0,0,1,2.773-1.773,1.89,1.89,0,0,1,1.273.443,1.935,1.935,0,0,1,.631,1.247,4.412,4.412,0,0,1,1.265-1.247,2.734,2.734,0,0,1,1.477-.443A1.834,1.834,0,0,1,4236.778,219.339Z" transform="translate(-4214.256 -211.632)"/><path class="f" d="M4251.452,217.884l-.837,5.827c-.021.2-.033.323-.033.378a.8.8,0,0,0,.107.444.815.815,0,0,0,.385.279l-.591,1.379a1.794,1.794,0,0,1-1.789-1.445,3.159,3.159,0,0,1-2.594,1.478,2.481,2.481,0,0,1-2.06-.92,3.876,3.876,0,0,1-.729-2.478,7.513,7.513,0,0,1,.5-2.676,5.157,5.157,0,0,1,1.584-2.217,4.187,4.187,0,0,1,2.741-.886A7.1,7.1,0,0,1,4251.452,217.884Zm-4.842,1.353a3.93,3.93,0,0,0-.862,1.626,7.3,7.3,0,0,0-.271,1.962q0,1.805,1.2,1.806a1.632,1.632,0,0,0,1.018-.354,4.988,4.988,0,0,0,.951-1.026l.624-4.431a2.879,2.879,0,0,0-1.165-.231A1.933,1.933,0,0,0,4246.61,219.238Zm3.726-6.762a1.709,1.709,0,0,1,.508,1.272,2.068,2.068,0,0,1-.3,1.074,2.147,2.147,0,0,1-.829.8,2.391,2.391,0,0,1-1.174.295,1.854,1.854,0,0,1-1.363-.5,1.726,1.726,0,0,1-.508-1.288,2.051,2.051,0,0,1,.295-1.059,2.164,2.164,0,0,1,.829-.8,2.391,2.391,0,0,1,1.174-.295A1.861,1.861,0,0,1,4250.336,212.476Zm-2.126.894a1.112,1.112,0,0,0-.254.723.764.764,0,0,0,.173.534.619.619,0,0,0,.483.189.871.871,0,0,0,.714-.312,1.106,1.106,0,0,0,.254-.722.738.738,0,0,0-.18-.533.648.648,0,0,0-.492-.19A.855.855,0,0,0,4248.21,213.37Z" transform="translate(-4218.898 -209.906)"/><path class="f" d="M4258.177,224.472l-.016.181a.452.452,0,0,0,.1.328.4.4,0,0,0,.3.1,1.906,1.906,0,0,0,.491-.1l.313,1.478a3.4,3.4,0,0,1-1.445.312,1.651,1.651,0,0,1-1.822-1.838,3.465,3.465,0,0,1,.033-.542l1.412-10.029,2.1-.231Z" transform="translate(-4222.143 -210.453)"/></g></g></svg>