<svg xmlns="http://www.w3.org/2000/svg" width="354.057" height="272.467" viewBox="0 0 354.057 272.467"><defs><style>.a{isolation:isolate;}.b{fill:#09455d;}</style></defs><g class="a" transform="translate(-10.026)"><path class="b" d="M495.748,186.146V142.356H471.42V113.912H454.953v28.444H430.625v43.789H417.152V87.713H389.83V78.357h-36.3V69H317.6v9.357H283.538v9.357H253.971v98.058H238.252V141.982H213.924V113.538H197.457v28.444H173.129v43.789H157.41V341.092h35.93V286.075h24.7v55.017H314.6v-64H356.52v64h58.386v.374h35.93V286.449h24.7v55.017h35.93V186.146ZM170.322,204.859h14.222v11.228H170.322Zm.187,31.438h14.222v11.228H170.509Zm14.409,42.666H170.7V267.736h14.222Zm37.24-101.426H189.223V170.8h32.936Zm0-9.731H189.223V161.07h32.936Zm0-9.731H189.223v-6.737h32.936Zm4.678,46.783h14.222v11.228H226.837Zm.187,31.438h14.222v11.228H227.024Zm14.409,42.666H227.211V267.736h14.222Zm58.2-18.713h-26.2v-11.6h26.2Zm0-33.31h-26.2v-11.6h26.2Zm0-33.31h-26.2v-11.6h26.2Zm0-33.31h-26.2v-11.6h26.2Zm0-33.31h-26.2v-11.6h26.2Zm49.029,133.239h-26.2v-11.6h26.2Zm0-33.31h-26.2v-11.6h26.2Zm0-33.31h-26.2v-11.6h26.2Zm0-33.31h-26.2v-11.6h26.2Zm0-33.31h-26.2v-11.6h26.2ZM397.69,260.251h-26.2v-11.6h26.2Zm0-33.31h-26.2v-11.6h26.2Zm0-33.31h-26.2v-11.6h26.2Zm0-33.31h-26.2v-11.6h26.2Zm0-33.31h-26.2v-11.6h26.2Zm30.129,78.222H442.04v11.228H427.818Zm.187,31.439h14.222V247.9H428.005Zm14.409,42.666H428.192V268.11h14.222Zm37.24-101.426H446.719v-6.737h32.935Zm0-9.731H446.719v-6.737h32.935Zm0-9.731H446.719v-6.737h32.935Zm4.678,46.783h14.222v11.228H484.333Zm.187,31.439h14.222V247.9H484.52Zm14.409,42.666H484.707V268.11h14.222Z" transform="translate(-147.384 -69)"/></g></svg>