<svg xmlns="http://www.w3.org/2000/svg" width="501.31" height="552" viewBox="0 0 501.31 552"><defs><style>.a{fill:#78bdc4;}</style></defs><path class="a" d="M1199.571,528.37c-2.3-3.161-6.494-4.195-9.482-1.264-5.287,5.115-10.516,10.287-15.746,15.4-3.1,2.988-10.517,13.62-12.7,5.459-2.873-10.574,6.379-23.216,11.551-31.779,12.355-20.516,25.86-40.859,21.435-65.915-2.241-12.7-8.5-24.423-15.056-35.4-5.114-8.448-11.149-20.746-23.159-18.159-5.919,1.264-11.724,11.723-17.47,7.988-4.195-2.7-6.666-8.678-10.4-12.183a52.234,52.234,0,0,0-14.194-9.425c-24.711-11.206-57.639-8.5-82.522.575-3.678,1.322-5.632,5.229-3.621,8.85,4.253,7.586-1.954,16.9-10.746,13.85-6.379-2.241-8.562-11.321-14.194-15.286a26.368,26.368,0,0,0-33.848,3.276c-3.046,3.1-8.965,13.85-14.712,11.723-2.413-.919-1.667-5.114-2.529-7.413a10.907,10.907,0,0,0-5.287-6.034c-14.424-7.7-20.171,10.631-20.8,21.55a11.178,11.178,0,0,0-.115,1.379v.287c.173,24.136,4.655,47.468,9.253,71.029q6.465,33.7,12.987,67.351l3.276,17.068c1.667,8.563,3.333,17.183,4.827,25.8.92,5.344,1.839,10.746,2.586,16.148.459,3.276,1.667,7.241,1.379,10.574-.345,3.62-1.207,4.31-4.77,4.655-7.644.69-19.251-.575-24.769-6.551-5.574-6.034-3.678-15.8-3.62-23.332,0-7.3-.862-15.171-6.092-20.8-5.344-5.8-15.631-6.149-19.6-12.758-2.3-3.85-3.161-7.873-7.126-10.516-4.425-2.931-9.54-1.149-14.022-3.161-5.574-2.529-6.9-12.24-11.551-16.436-6.264-5.632-15.286-4.252-21.033,1.437-3.161,3.218-4.827,7.241-6.781,11.206-.862,1.781-1.724,4.195-3.218,5.574a10.288,10.288,0,0,1-4.023,1.839c-1.781-4.195-8.62-6.723-11.091-1.437A654.262,654.262,0,0,0,786.9,649.28c-1.724,5.919-2.414,16.148-6.667,20.86-2.011,2.184-5.459,2.873-7.815,4.483a15.4,15.4,0,0,0-5.689,7.011c-2.3,5.345-1.207,10.919-2.126,16.493-1.092,6.781-6.322,12.3-8.046,19.021-2.873,11.321-.46,23.562,5.4,33.561a49.319,49.319,0,0,0,11.091,13.275c4.023,3.391,10.574,5.517,13.792,9.655,3.965,5-2.3,12.93-4.827,17.355-4.023,7.068-8.39,13.964-13.045,20.631a267.153,267.153,0,0,1-30.343,36.032c-15.171,15.056-47.812,39.135-25.4,62.754,4.827,5.057,11.838,7.873,18.159,10.574,4.367,1.839,8.907,3.735,13.677,4.138,6.207.46,11.206-1.9,14.022-7.471,1.149-2.241,1.667-4.712,2.644-7.011A8.647,8.647,0,0,1,762.995,908c.287-.4.4-.919.8-1.207,2.758-2.069,3.045-.345,4.08,1.264.977,1.494,1.034,4.023,1.839,5.689a22.033,22.033,0,0,0,4.6,6.609,26.527,26.527,0,0,0,13.734,6.9,27.4,27.4,0,0,0,28.274-12.24,35.536,35.536,0,0,0,5.229-15.861,38.609,38.609,0,0,0-.287-8.562c-.4-3.161-2.586-6.9-2.586-9.885,0-2.643-.23-1.954,2.3-3.275,2.471-1.322,4.942-2.528,7.413-3.793,4.6-2.356,9.137-4.655,13.677-7.011,8.1-4.08,16.263-8.1,24.251-12.355,6.494-3.448,12.758-7.528,16.436-14.08,3.563-6.321,4.368-13.735,6.494-20.516,9.367-29.48,34.594-50.628,58.214-69.362,3.908,6.9-.287,20.056-1.667,26.32a269.207,269.207,0,0,1-10.171,34.021c-3.391,8.965-7.3,18.792-4.712,28.446a23.467,23.467,0,0,0,17.24,16.436c18.044,4.252,32.354-11.091,38.79-26.033,4.367-10.287,6.206-21.55,11.148-31.549A53.921,53.921,0,0,1,1017.4,776.34c19.194-12.068,42.985-8.793,64.421-12.3a80.219,80.219,0,0,0,47.985-26.894,81.208,81.208,0,0,0,13.964-23.274c4.08-10.4,5.287-20.746,12.758-29.423,6.723-7.758,13.447-14.711,17.757-24.193a66.417,66.417,0,0,0,5.8-28.216c-.287-10.8-6.609-22.815-4.6-33.446,1.207-6.666,7.47-8.85,12.585-12.068a37.689,37.689,0,0,0,10-8.85C1209.053,563.712,1210.087,542.852,1199.571,528.37Zm-16.608,47.123c-7.011,4.885-14.539,7.528-17.987,16.033-3.218,8.16-1.379,17.01.518,25.228,4.827,21.091.862,38.79-13.735,55-5.977,6.551-11.321,12.988-14.309,21.493-3.448,9.769-5.229,19.251-10.918,28.159a68.324,68.324,0,0,1-41.721,29.768c-20.573,4.885-42.41,1.494-62.409,9.195a65.488,65.488,0,0,0-35.8,33.79c-6.954,15.286-8.218,40.629-25.918,48.387-4.252,1.839-9.31,2.241-13.447-.287-5.746-3.62-5.516-10.344-4.137-16.206,2.758-11.666,8.16-22.7,11.378-34.25,4.425-16.091,13.792-43.043-3.448-54.766-2.414-1.667-5.287-.69-7.356.919-20.63,16.321-41.721,33.446-55.685,56.145-7.011,11.263-9.827,22.872-13.849,35.284-2.414,7.471-7.241,10.919-13.907,14.424-7.183,3.793-14.481,7.413-21.78,11.091-7.011,3.62-14.079,7.183-21.09,10.8-5.4,2.758-10.919,5.459-11.379,12.3-.345,5.517,3.276,10.631,3.621,16.148.345,6.149-1.322,12.873-5.8,17.3a15.149,15.149,0,0,1-15,3.62c-5.747-1.667-7.586-5.057-9.252-10.229-3.16-9.884-13.677-15.114-22.7-7.93-4.6,3.62-6.322,9.195-8.16,14.482a7.846,7.846,0,0,1-.632,1.552c0,.057-.115.115-.345.345a1.531,1.531,0,0,0,.287-.345c-.058,0-.115.057-.173.115-2.356.8-6.781-1.149-9.195-2.069-5.8-2.241-13.849-5.057-17.642-10.229-4.712-6.494-2.758-14.022,1.494-20.171,7.643-10.976,19.711-19.079,28.963-28.733a278.4,278.4,0,0,0,26.549-32.124c7.643-10.746,17.24-23.331,21.205-36.032,3.276-10.574-1.839-18.275-10.631-23.734-10.114-6.321-18.1-14.539-20.516-26.665a29,29,0,0,1,3.046-19.941c3.505-6.494,5.517-11.723,5.8-19.136.115-3.333-.4-7.3,2.414-9.712,2.3-1.954,5.689-2.471,8.045-4.54,5.057-4.367,6.609-10.861,8.276-17.01a637.256,637.256,0,0,1,34.537-96.889,14.151,14.151,0,0,0,9.367-.057c8.505-2.7,10.574-11.263,14.6-18.045,6.322-10.574,9.6,1.954,13.16,7.3a18.669,18.669,0,0,0,6.666,6.551c4.08,2.184,9.425.8,13.1,3.1,3.448,2.126,4.424,8.045,7.643,11.091,2.989,2.816,6.724,4.253,10.4,5.861,4.023,1.724,7.529,3.391,9.023,7.7,1.436,4.31.862,9.367.747,13.792-.23,8.448-.057,17.24,5.057,24.423,4.885,6.839,12.873,10.229,20.976,11.608,7.471,1.322,18.906,3.161,25.745-1.034,9.08-5.574,5.287-18.5,4.138-26.952-2.184-15.573-5.23-30.975-8.218-46.376q-6.292-32.411-12.528-64.938c-5.4-27.986-11.781-55.8-11.953-84.419,0-1.207.287-12.126,2.3-11.838,1.092.172,1.552,5.517,2.126,6.666,2.471,5.344,8.046,7.815,13.677,7.643,6.781-.172,12.01-3.965,16.321-8.85,5.286-5.976,9.769-12.528,18.849-10.516,8.218,1.9,9.482,10.229,15.287,15.114a21.9,21.9,0,0,0,18.561,4.655c12.011-2.471,18.1-14.252,15.919-25.228,22.182-6.839,51.26-8.965,71.431,2.414a39.67,39.67,0,0,1,12.872,11.838c3.1,4.31,6.839,8.16,12.068,9.769a14.966,14.966,0,0,0,10.919-.862c3.448-1.666,5.517-5.172,8.793-6.954,4.769-2.643,7.183,3.793,9.366,7.356a185.93,185.93,0,0,1,10.632,18.964c6.034,13.045,8.218,26.607,3.678,40.457-4.023,12.183-11.609,22.929-18.16,33.791-5.632,9.31-12.528,20.113-13.5,31.2-.8,8.965,2.758,21.55,13.5,22.24,7.011.46,11.609-4.138,16.206-8.677l13.85-13.5C1197.33,553.311,1193.939,567.85,1182.963,575.493Z" transform="translate(-705.602 -375.725)"/></svg>